<?xml version="1.0" encoding="UTF-8" standalone="no"?>
<!-- Created with Inkscape (http://www.inkscape.org/) -->

<svg
   version="1.1"
   id="svg1"
   width="3595.2366"
   height="923.19049"
   viewBox="0 0 3595.2366 923.19049"
   xmlns="http://www.w3.org/2000/svg"
   xmlns:svg="http://www.w3.org/2000/svg">
  <defs
     id="defs1" />
  <g
     id="g1"
     transform="translate(-120.47215,-616.70587)">
    <path
       style="fill:#000000"
       d="m 1759,1539.0457 c -5.2005,-1.0763 -10.1555,-3.4567 -13.25,-6.3654 l -2.75,-2.5848 -0.084,-77.2978 c -0.046,-42.5137 -0.2387,-83.8227 -0.4273,-91.7977 -0.1885,-7.975 -0.6018,-110.125 -0.9183,-227 -0.3164,-116.875 -0.8618,-266.275 -1.2118,-332 -0.5765,-108.25677 -0.4803,-120.54925 1.0229,-130.65206 1.747,-11.74164 3.6727,-18.35792 8.0149,-27.53657 3.417,-7.22291 6.5267,-10.22966 13.4571,-13.01141 4.9084,-1.97017 7.4125,-2.26366 19.1469,-2.24407 12.0328,0.0201 14.0184,0.27355 18.27,2.33221 3.0227,1.46362 5.8512,3.88119 7.7217,6.59985 4.5589,6.62615 11.2509,23.02064 17.1486,42.01205 0.5124,1.65 4.2904,12.78837 8.3956,24.75193 4.1053,11.96356 7.4641,22.62424 7.4641,23.6904 0,1.06616 1.0844,5.00279 2.4097,8.74807 1.3254,3.74528 4.5132,13.5596 7.0841,21.8096 2.5709,8.25 5.2616,16.8 5.9793,19 0.7177,2.2 1.7404,6.25 2.2726,9 0.5323,2.75 2.5651,10.175 4.5173,16.5 6.8692,22.2554 11.9964,40.55232 12.75,45.5 0.4188,2.75 1.6894,8.15 2.8234,12 5.4494,18.50105 10.801,39.14439 15.9434,61.5 1.0754,4.675 5.1648,21.16918 9.0877,36.65374 3.9229,15.48456 7.1325,29.0544 7.1325,30.15519 0,1.6728 9.1494,40.37767 14.5831,61.69107 0.8413,3.3 1.8982,8.7 2.3487,12 0.4504,3.3 2.8586,14.55 5.3515,25 9.1437,38.3288 12.494,53.1023 13.0541,57.5625 0.3151,2.5093 2.1479,11.0593 4.0728,19 10.6641,43.9918 12.5898,52.3447 12.5898,54.6108 0,1.3697 4.05,18.9159 9,38.9916 4.95,20.0756 9,37.3734 9,38.4393 0,1.066 2.9827,13.5161 6.6283,27.667 6.0616,23.5295 8.6017,33.7863 11.4485,46.2288 0.7663,3.3492 2.1029,5.4322 5.2264,8.145 2.3082,2.0048 4.5343,3.4407 4.9468,3.191 0.4125,-0.2497 0.7491,-4.59 0.7481,-9.645 0,-5.0551 0.9197,-34.479 2.0461,-65.3865 3.031,-83.1683 3.6223,-112.5652 3.8109,-189.448 0.1751,-71.3752 -0.1094,-82.9138 -4.3601,-176.8565 -6.7854,-149.96042 -6.7729,-207.83441 0.061,-282 1.2556,-13.626 1.9629,-17.41623 4.0607,-21.76016 2.5282,-5.23494 9.0938,-11.76851 17.5311,-17.44554 3.4348,-2.31113 4.337,-2.53021 6.1867,-1.50236 2.8713,1.59555 10.6655,8.89324 10.6655,9.98609 0,0.47389 1.2742,2.7427 2.8316,5.04179 5.8071,8.57256 6.4779,13.63657 4.6299,34.94949 -2.4945,28.76842 -3.1903,51.02132 -3.1808,101.73069 0.01,45.33465 0.7106,71.57778 4.0528,151.5 1.8958,45.3331 2.1665,70.26215 2.1665,199.5 0,103.3956 -0.6694,166.5033 -2.0471,193 -0.2716,5.225 -1.1734,25.475 -2.0039,45 -0.8305,19.525 -2.4179,49.675 -3.5275,67 -1.1096,17.325 -2.4247,38.7 -2.9224,47.5 -1.0175,17.9889 -4.3045,45.079 -6.4813,53.4147 -0.8812,3.3746 -2.3303,6.1906 -3.7295,7.2476 -8.328,6.2914 -20.3198,8.3432 -31.7883,5.4392 -8.1742,-2.07 -10.9017,-4.013 -13.8324,-9.8542 -2.8255,-5.6317 -10.4417,-28.1359 -12.0982,-35.7473 -2.3656,-10.8699 -7.4686,-28.7877 -12.6736,-44.5 -2.9152,-8.8 -5.7107,-18.475 -6.2123,-21.5 -0.5016,-3.025 -4.1957,-18.1 -8.209,-33.5 -4.0134,-15.4 -7.7115,-30.25 -8.2181,-33 -0.5067,-2.75 -4.7241,-20.75 -9.3721,-40 -4.648,-19.25 -8.9129,-37.925 -9.4776,-41.5 -0.5647,-3.575 -2.3819,-12.125 -4.0383,-19 -8.5649,-35.549 -12.8684,-54.4076 -12.8684,-56.3908 0,-1.2131 -4.05,-19.3879 -9,-40.3885 -4.95,-21.0005 -9,-39.1433 -9,-40.3172 0,-1.8047 -4.0519,-19.3819 -14.1549,-61.4035 -1.0579,-4.4 -2.301,-10.7 -2.7625,-14 -0.4616,-3.3 -1.3462,-7.8 -1.9659,-10 C 1870.9712,1026.3333 1858,972.51637 1858,970.63266 c 0,-1.19679 -3.6398,-15.89123 -8.0884,-32.65432 -4.4486,-16.76309 -8.4551,-32.72834 -8.9033,-35.47834 -0.8358,-5.12742 -5.5372,-22.61567 -13.9151,-51.76052 -1.7013,-5.91829 -3.0932,-11.47473 -3.0932,-12.34765 0,-0.87292 -1.8438,-7.73068 -4.0974,-15.23948 -5.11,-17.02639 -8.0033,-26.99444 -11.3643,-39.15235 -1.4444,-5.225 -3.3393,-11.975 -4.2109,-15 -1.7337,-6.01699 -7.0679,-17.9239 -11.1998,-25 l -2.6276,-4.5 -0.5621,6.5 c -0.3091,3.575 -0.7375,32.825 -0.9521,65 -0.5342,80.13503 -0.067,547.6307 0.583,583.5 0.883,48.7145 3.3637,95.0475 6.8111,127.2161 l 1.202,11.2161 -6.5409,1.9668 c -7.919,2.3812 -22.2719,5.1441 -25.9015,4.986 -1.4517,-0.063 -4.2145,-0.4409 -6.1395,-0.8393 z M 153.49604,1536.203 c -7.1511,-5.2542 -18.94366,-17.6216 -21.18341,-22.216 -4.04843,-8.3046 -5.15383,-15.1128 -6.73594,-41.487 -4.20829,-70.1533 -5.45935,-115.366 -5.02222,-181.5 0.60623,-91.7166 4.54699,-157.4733 16.03111,-267.5 1.91758,-18.3718 4.72999,-38.47219 7.97535,-57 1.44508,-8.25 3.01011,-18.23506 3.47785,-22.18903 0.85347,-7.21476 9.64912,-44.17902 14.41409,-60.57608 1.40092,-4.82081 2.54713,-9.61463 2.54713,-10.65293 0,-2.31878 12.3095,-40.41166 15.60846,-48.30183 1.31535,-3.14592 2.39154,-6.65811 2.39154,-7.80486 0,-1.14675 0.84229,-3.97281 1.87176,-6.28013 1.02947,-2.30733 2.80243,-6.67014 3.93992,-9.69514 1.13749,-3.025 4.04413,-10.22877 6.45919,-16.00839 2.41507,-5.77961 4.7165,-11.80515 5.11429,-13.39009 0.3978,-1.58494 2.76455,-7.20617 5.25946,-12.49162 2.49491,-5.28544 6.22979,-13.2099 8.29975,-17.6099 7.91894,-16.83289 9.16998,-19.25326 14.47268,-28 3.00093,-4.95 6.1347,-10.45753 6.96395,-12.23895 1.59567,-3.4279 7.19814,-11.91899 9.23401,-13.99504 0.66556,-0.67869 3.34448,-4.50369 5.95316,-8.5 2.60867,-3.99631 5.25554,-7.71601 5.88193,-8.26601 0.62639,-0.55 4.31104,-4.43838 8.18811,-8.64084 11.38763,-12.34337 23.84021,-22.89984 33.15625,-28.10768 9.65776,-5.39886 20.3625,-10.4247 24.83329,-11.65914 2.12851,-0.58771 10.39553,-1.35592 18.37114,-1.70712 23.71387,-1.04423 49.24017,2.10423 75.50111,9.31245 7.15,1.96256 14.8,4.01232 17,4.55502 9.69399,2.39132 44.4644,15.63868 46.95,17.88772 0.5225,0.47278 1.7196,0.85959 2.66021,0.85959 3.24147,0 30.88979,14.48983 30.88979,16.18861 0,0.44626 0.74661,0.81139 1.65913,0.81139 2.76681,0 16.86987,11.11588 28.63411,22.56911 C 554.37065,702.3801 567,716.73728 567,718.38241 c 0,0.37203 1.6875,2.86361 3.75,5.53683 10.37283,13.44429 29.3374,50.28939 31.40345,61.01181 1.51156,7.84475 2.25759,8.36599 16.48909,11.52057 25.7555,5.70903 38.23779,11.33718 47.45637,21.39763 3.2456,3.542 5.90109,7.01242 5.90109,7.71204 0,0.69962 0.38089,1.42204 0.84642,1.60538 1.34849,0.53105 16.15166,23.3309 16.1717,24.90764 0.01,0.78413 1.3905,3.90069 3.06786,6.92569 4.11723,7.42513 10.31447,22.15674 12.40996,29.5 0.94169,3.3 3.21959,10.725 5.062,16.5 7.43856,23.31608 13.53547,44.74694 15.22032,53.5 0.52934,2.75 3.21369,14.9 5.96523,27 7.92833,34.8651 13.41218,73.4308 16.77901,118 3.03758,40.2106 1.67761,60.3776 -6.03546,89.5 -3.32307,12.5469 -13.79115,29.1456 -24.06826,38.1638 -3.34467,2.9349 -7.59204,6.6528 -9.43861,8.262 -1.84656,1.6091 -5.86001,4.2543 -8.91878,5.878 -3.05876,1.6238 -6.68639,3.7386 -8.06139,4.6996 -1.375,0.961 -6.2125,3.6084 -10.75,5.8831 l -8.25,4.1358 8.4e-4,6.2389 c 4.6e-4,3.4313 0.44011,10.9638 0.977,16.7388 1.20226,12.932 3.49422,53.539 5.53136,98 2.76161,60.2728 5.48791,99.0298 9.08781,129.1916 1.3687,11.4677 1.36374,12.9836 -0.0515,15.7203 -0.86143,1.6659 -2.34908,3.4316 -3.30589,3.9239 -0.95681,0.4923 -7.58965,1.5026 -14.73965,2.2451 -13.58376,1.4106 -38.16056,1.634 -107,0.9727 -40.5962,-0.39 -48.89352,0.031 -71.75988,3.6392 l -10.75988,1.698 -7.75488,-3.7809 c -8.6062,-4.196 -15.76649,-10.2524 -17.73069,-14.9971 -1.65517,-3.9982 -2.30502,-15.4322 -3.53018,-62.1128 -1.6973,-64.6702 -6.18283,-107.8625 -12.51839,-120.5427 -3.56227,-7.1297 -13.33346,-16.376 -20.15094,-19.0686 -4.95687,-1.9577 -8.07005,-2.3448 -21.52168,-2.6762 -13.49564,-0.3324 -17.08482,-0.078 -25.30178,1.7939 -22.19142,5.0554 -30.85448,9.9922 -36.4828,20.7904 -4.6528,8.9266 -5.19076,13.134 -5.3998,42.2321 -0.10878,15.1409 -0.52176,28.0531 -0.91773,28.6938 -0.39597,0.6407 -1.14342,21.3277 -1.661,45.9711 -0.90216,42.9549 -1.63908,55.3377 -4.10914,69.0477 -1.08651,6.0307 -1.24738,6.2728 -4.76286,7.1683 -14.21585,3.621 -35.31987,5.0066 -64.13837,4.2112 -50.1523,-1.3842 -76.49493,-0.4136 -94.00396,3.4636 -1.78899,0.3962 -3.64498,-0.2839 -6.5,-2.3816 z m 125.44366,-51.1054 c 1.30396,-2.1099 2.13737,-34.2012 1.97626,-76.0976 -0.15428,-40.1181 0.67886,-54.8986 4.19934,-74.5 1.0866,-6.05 2.36837,-13.475 2.84837,-16.5 1.88438,-11.8754 4.46287,-17.6056 11.59471,-25.767 7.97063,-9.1212 8.04341,-9.177 19.24429,-14.7392 22.48966,-11.1682 54.34326,-15.8243 104.69733,-15.3039 34.94405,0.3612 35.29305,0.4431 45.5448,10.6949 5.9602,5.9602 9.28482,11.8966 10.98535,19.6152 0.48469,2.2 2.41752,9.1773 4.29517,15.5052 3.68019,12.4027 7.02839,30.5006 8.60175,46.4948 1.02314,10.4009 1.69698,28.899 2.56815,70.5 0.28218,13.475 0.8066,32.7392 1.16538,42.8093 l 0.65233,18.3092 61.59353,-0.2914 c 77.82749,-0.3682 80.34362,-0.4519 79.66223,-2.6492 -0.28617,-0.9229 -0.97118,-17.2029 -1.52224,-36.1779 -1.10831,-38.1625 -6.15036,-158.978 -8.55537,-205 -2.47596,-47.3796 -6.1152,-100.2161 -10.57268,-153.5 -1.9347,-23.127 -12.9273,-105.08735 -14.41789,-107.49918 -0.21347,-0.34539 -0.8566,-5.19323 -1.42919,-10.77298 C 600.06376,950.66469 582.4944,870.21096 572.54047,835 c -1.32159,-4.675 -3.14,-11.2 -4.04089,-14.5 -3.71954,-13.62469 -8.13026,-25.699 -13.69869,-37.5 -8.88926,-18.83873 -8.84418,-18.75816 -15.63136,-27.93793 -3.48176,-4.70914 -6.96925,-9.7772 -7.74998,-11.26237 -0.78073,-1.48516 -2.09219,-3.07675 -2.91435,-3.53685 -0.82216,-0.46011 -4.98467,-4.2255 -9.25002,-8.36754 -4.26535,-4.14204 -10.90518,-9.66279 -14.75518,-12.26833 -3.85,-2.60554 -8.8,-6.03716 -11,-7.62582 -4.95807,-3.58031 -33.70249,-17.95798 -42.5,-21.25807 -22.93189,-8.60213 -60.32108,-18.89827 -75.28426,-20.73159 -4.83134,-0.59194 -11.08026,-1.51169 -13.88649,-2.04388 -7.59268,-1.43992 -13.55464,-1.18987 -24.88719,1.0438 -13.4036,2.64188 -19.00698,5.59804 -37.15738,19.60303 -2.93277,2.26295 -7.3466,6.76295 -9.8085,10 -2.4619,3.23705 -4.98199,6.33555 -5.60019,6.88555 -2.09508,1.86393 -11.85606,16.71344 -15.61657,23.75769 -2.05732,3.8538 -5.25332,9.30988 -7.10222,12.12461 -5.55951,8.46368 -24.17893,47.24993 -28.37958,59.1177 -1.16805,3.3 -3.44116,9.15 -5.05137,13 -7.81157,18.6775 -26.18371,79.60614 -28.19354,93.5 -0.43758,3.025 -2.68643,14.05 -4.99744,24.5 -5.90492,26.7011 -10.86845,54.16701 -12.01761,66.5 -0.53811,5.775 -2.09449,18.6 -3.45864,28.5 -7.54899,54.7851 -13.05797,117.9531 -14.65155,168 -1.38128,43.3795 -1.84313,150.4227 -0.81978,190 0.9006,34.8299 3.58132,92.4676 4.56757,98.2067 0.54892,3.1942 0.5769,3.2078 7.1979,3.5013 3.65576,0.162 28.15987,0.2793 54.45357,0.2605 38.79609,-0.028 47.96245,-0.286 48.63297,-1.3709 z M 334,1025.5475 c -5.775,-0.7509 -14.775,-2.3519 -20,-3.5578 -5.225,-1.2059 -11.92205,-2.6125 -14.88234,-3.1257 -6.5338,-1.1329 -21.91921,-7.516 -32.11766,-13.3251 -4.125,-2.3496 -8.50984,-4.5866 -9.74408,-4.971 -1.23424,-0.3844 -3.00157,-1.45694 -3.92738,-2.38341 -0.92582,-0.92647 -3.72612,-3.13744 -6.22289,-4.91328 -11.62395,-8.26755 -22.65881,-22.63964 -25.23354,-32.86483 -2.71299,-10.77426 3.18613,-62.91182 10.66241,-94.23643 C 233.89053,860.48842 235,854.81294 235,853.55776 c 0,-2.98359 5.23249,-19.40912 10.07283,-31.62002 9.35492,-23.59999 16.23747,-29.31646 42.5368,-35.32996 44.18732,-10.10369 69.76099,-12.7824 113.39037,-11.87705 20.75409,0.43067 32.57413,1.85255 47.95705,5.76895 10.58607,2.69515 29.01289,9.07026 30.49188,10.54925 0.52309,0.52309 1.7739,0.95107 2.77959,0.95107 2.89888,0 13.80742,5.89839 14.40228,7.7875 0.29658,0.94188 2.04225,5.0875 3.87926,9.2125 5.51383,12.38132 10.04652,24.14058 11.75643,30.5 12.0028,44.64031 15.73133,67.54995 17.79242,109.32411 1.36913,27.74934 0.28293,33.18383 -8.98323,44.94513 -8.94895,11.35866 -34.90114,22.27266 -61.13405,25.70936 -39.95128,5.2339 -57.69017,6.682 -86.44163,7.0565 -20.6968,0.2696 -32.00633,-0.013 -39.5,-0.9876 z m 76.42407,-39.98966 C 416.43231,984.70103 423.03985,984 425.1075,984 c 13.16518,0 43.66127,-8.22853 52.81207,-14.24988 1.88076,-1.23756 4.26013,-2.75003 5.28748,-3.36102 5.49316,-3.26693 9.88382,-9.63264 11.12028,-16.12251 0.38342,-2.01248 -0.28595,-6.78915 -1.77272,-12.65016 -2.48384,-9.79157 -4.3183,-18.79347 -9.49977,-46.61643 -4.16614,-22.37095 -4.846,-25.12431 -8.50194,-34.43209 C 468.58701,841.37913 458.71823,827 454.25965,827 c -0.87886,0 -3.911,-1.30541 -6.73807,-2.90091 -16.31234,-9.20612 -39.82136,-11.6516 -86.98934,-9.04891 -24.76726,1.36664 -43.10114,4.56225 -60.03224,10.46366 -9.3845,3.27101 -11.54553,4.47573 -12.49142,6.9636 -0.5203,1.36848 -3.32257,5.98338 -6.22729,10.25535 -12.54071,18.44366 -21.45912,49.9008 -22.51359,79.41029 -0.67139,18.78895 -0.038,21.87736 6.83842,33.34333 5.27095,8.789 9.06903,12.26304 20.09918,18.38443 6.86899,3.81207 23.37493,8.97573 32.3822,10.13034 3.89813,0.49969 10.19813,1.41876 14,2.04237 17.59484,2.88607 55.86735,2.64724 77.83657,-0.48571 z M 677.36002,1204.75 c 10.70968,-5.6688 22.86171,-20.1557 27.04959,-32.2467 4.49255,-12.9707 6.1442,-38.3449 3.6779,-56.5033 -0.63496,-4.675 -1.57981,-14.6258 -2.09967,-22.1129 -1.08155,-15.5769 -6.5478,-54.8488 -10.91067,-78.3871 -1.6311,-8.8 -3.69378,-20.05 -4.58373,-25 -3.74818,-20.84784 -10.24211,-45.90152 -16.02046,-61.80721 C 673.11284,924.94882 672,921.02304 672,919.96882 672,917.10304 658.23506,882.91941 655.31256,878.52749 654.59065,877.44262 654,875.9169 654,875.13702 c 0,-3.58589 -5.1285,-10.9738 -12.21442,-17.59558 -10.56098,-9.86923 -23.89956,-16.8881 -22.40832,-11.79144 5.48303,18.7395 17.62229,70.84266 17.62356,75.64238 4.5e-4,1.70919 0.70543,6.48262 1.56663,10.60762 5.5102,26.393 13.33237,80.1865 16.94039,116.5 0.87435,8.8 2.46103,24.325 3.52595,34.5 3.39409,32.4292 10.96621,117.5303 10.96621,123.2463 0,2.3244 0.23025,2.2776 7.36002,-1.4963 z M 765.5,1536.932 c -4.4,-1.1014 -9.01915,-2.2654 -10.26478,-2.5867 -1.24563,-0.3212 -2.47124,-0.9182 -2.72358,-1.3265 -0.25234,-0.4083 1.10288,-9.467 3.01161,-20.1306 1.90873,-10.6635 3.48058,-20.9632 3.493,-22.8882 0.0124,-1.925 1.36718,-11.15 3.01058,-20.5 5.73276,-32.6161 13.76755,-81.086 15.33361,-92.5 0.86782,-6.325 3.60972,-23.2 6.09311,-37.5 5.37517,-30.9517 10.11582,-60.3222 11.29855,-70 0.47052,-3.85 4.31053,-27.925 8.53336,-53.5 14.54726,-88.1034 25.79761,-158.5065 25.75612,-161.1783 -0.0229,-1.473 2.89872,-20.598 6.49243,-42.5 7.58573,-46.23151 9.91474,-61.38208 11.34817,-73.8217 0.57039,-4.95 2.18131,-15.975 3.57981,-24.5 4.05335,-24.70842 10.46455,-65.61536 11.98957,-76.5 0.77059,-5.5 2.55767,-18.325 3.97131,-28.5 1.41363,-10.175 4.37434,-30.2 6.57937,-44.5 4.23543,-27.46764 6.91244,-46.26275 9.40045,-66 3.06351,-24.30272 6.62161,-46.50231 8.20406,-51.18662 5.30638,-15.70771 14.59113,-23.81205 25.03556,-21.85266 5.20124,0.97576 12.35321,8.77428 17.00226,18.53928 1.96389,4.125 4.14418,8.175 4.8451,9 1.50809,1.77507 7.96979,16.29033 10.56767,23.73874 2.33687,6.70005 5.51177,25.37863 6.92843,40.76126 2.23076,24.22255 8.013,63.64252 11.58797,79 0.76818,3.3 1.40335,7.52071 1.41148,9.37936 0.017,3.89876 5.89932,30.72197 13.06205,59.56311 2.724,10.96836 4.95273,20.90747 4.95273,22.08692 0,1.17944 3.64461,16.50533 8.09914,34.05752 4.45453,17.5522 8.48686,34.61309 8.96086,37.91309 0.4739,3.3 1.7846,9.825 2.9127,14.5 6.2203,25.77863 13.8121,63.9687 15.0085,75.5 0.5136,4.95 2.3242,15.975 4.0235,24.5 5.8779,29.487 12.0513,64.5361 12.9462,73.5 0.4941,4.95 2.0688,16.2 3.4993,25 2.7022,16.6236 7.7023,47.6522 12.0355,74.6874 1.3829,8.628 2.5143,17.2365 2.5143,19.1299 0,3.7799 5.9032,39.3783 11.4725,69.1827 1.9526,10.45 4.0351,22.375 4.6276,26.5 1.8979,13.2129 1.893,13.2043 3.964,7 4.2219,-12.6485 6.9113,-30.2659 12.9755,-85 1.6363,-14.7685 8.6541,-66.0687 14.0599,-102.7773 2.6953,-18.3024 4.902,-34.9524 4.9039,-37 0,-2.0475 3.3545,-25.3227 7.4503,-51.7227 7.4507,-48.0249 8.4976,-55.1732 10.5444,-72 0.6021,-4.95 4.4819,-29.475 8.6219,-54.5 4.1399,-25.025 7.9367,-49.40317 8.4375,-54.17372 0.5007,-4.77055 2.7116,-18.94555 4.9131,-31.5 10.5859,-60.36754 12.0301,-68.98009 12.0392,-71.79875 0.01,-1.66514 2.6527,-17.42753 5.8828,-35.02753 6.7764,-36.92313 11.3272,-62.75386 13.5656,-77 3.4015,-21.64845 10.4306,-55.36901 12.19,-58.47871 1.0185,-1.80018 2.4223,-4.30693 3.1196,-5.57054 1.491,-2.70176 10.4356,-10.95458 14.7288,-13.58969 3.7723,-2.31532 5.3664,-1.79797 12.9333,4.19732 9.9878,7.91349 17.1914,15.18726 19.4266,19.61585 2.2555,4.46874 4.8087,17.28052 5.7337,28.77051 0.3124,3.88039 1.8614,15.60526 3.4422,26.05526 1.5809,10.45 3.5593,23.725 4.3965,29.5 0.8372,5.775 3.1204,21.3 5.0738,34.5 1.9534,13.2 3.9624,28.725 4.4644,34.5 0.502,5.775 3.1829,26.7 5.9576,46.5 4.9027,34.98641 8.1898,60.64973 13.5773,106 1.4375,12.1 3.9115,31.9 5.4979,44 2.9657,22.6209 8.5839,69.5733 12.0255,100.5 1.0711,9.625 4.8785,41.1163 8.461,69.9806 3.5825,28.8644 6.5136,54.4425 6.5136,56.8402 0,2.3977 1.3662,15.4564 3.036,29.0194 1.6698,13.5629 5.7198,46.3691 9,72.9028 3.2802,26.5336 5.964,50.1225 5.964,52.4197 0,2.2972 3.6382,32.7878 8.0848,67.757 4.4467,34.9692 8.4968,69.2053 9.0001,76.0803 0.5034,6.875 1.1314,13.0762 1.3955,13.7804 0.2641,0.7043 -0.5235,1.7062 -1.7501,2.2266 -5.5993,2.3755 -19.2332,4.993 -26.0074,4.993 -6.388,0 -7.9932,-0.3728 -11.317,-2.6284 -4.898,-3.3239 -6.1011,-4.9069 -7.5026,-9.8716 -2.3718,-8.4016 -5.9958,-27.3695 -6.8782,-36 -0.5061,-4.95 -2.2903,-19.8 -3.965,-33 -4.2322,-33.3592 -14.0597,-124.3423 -14.0618,-130.1841 -10e-4,-2.6487 -2.4378,-26.4159 -5.4153,-52.8159 -2.9775,-26.4 -6.8216,-61.275 -8.5424,-77.5 -4.0852,-38.5187 -13.3457,-120.0922 -17.0851,-150.5 -1.6233,-13.2 -2.9536,-26.025 -2.9562,-28.5 0,-2.475 -3.3505,-30.825 -7.4397,-63 -7.227,-56.86284 -8.8509,-70.29435 -12.0298,-99.5 -2.1261,-19.53279 -10.3363,-79.63988 -10.9641,-80.26759 -1.5405,-1.54052 -6.3888,6.3743 -8.7398,14.26759 -0.4914,1.65 -1.7659,9.525 -2.8321,17.5 -1.0663,7.975 -3.9761,25.47782 -6.4663,38.89516 -2.4901,13.41734 -4.5275,25.8201 -4.5275,27.56169 0,1.74159 -1.8033,13.42383 -4.0073,25.96054 -8.2576,46.97082 -12.9927,75.66372 -12.9927,78.7303 0,1.74066 -1.5583,12.65702 -3.4629,24.25861 -9.8149,59.7856 -14.5371,90.3147 -14.5371,93.9829 0,1.8316 -1.7804,14.9808 -3.9565,29.2205 -8.0655,52.7794 -12.2331,82.1581 -13.0351,91.8903 -0.4533,5.5 -2.4642,21.7 -4.4687,36 -6.8403,48.7974 -13.5397,100.8438 -13.5397,105.1869 0,2.3849 -1.5633,17.0435 -3.474,32.5747 -1.9108,15.5311 -4.6011,37.9134 -5.9786,49.7384 -6.9293,59.4856 -8.7027,70.3915 -14.1723,87.1538 l -3.4764,10.6539 -15.1993,-0.1805 c -13.416,-0.1593 -15.6766,-0.4328 -19.2663,-2.3308 -5.0868,-2.6895 -6.082,-3.8908 -7.3197,-8.8358 -0.5453,-2.1783 -2.1615,-7.7856 -3.5917,-12.4606 -4.7762,-15.6125 -11.3015,-46.7565 -13.5381,-64.6147 -1.0784,-8.6098 -8.1777,-53.4902 -26.873,-169.8853 -4.9471,-30.8 -9.3853,-59.375 -9.8628,-63.5 -0.4775,-4.125 -4.30674,-28.425 -8.50943,-54 -4.20268,-25.575 -9.52437,-58.425 -11.82598,-73 -2.3016,-14.575 -6.17861,-36.175 -8.61557,-48 -2.43696,-11.825 -4.80819,-24.425 -5.26941,-28 -0.46121,-3.575 -1.57768,-9.65 -2.48105,-13.5 -3.32235,-14.15938 -4.57599,-19.39339 -9.10164,-38 -2.54174,-10.45 -5.01342,-21.7 -5.49263,-25 -0.47921,-3.3 -2.70146,-13.425 -4.93832,-22.5 C 939.35195,887.97289 933,859.90238 933,857.4896 933,848.98208 919.5802,797.09465 916.96125,795.47605 916.39932,795.12876 916,796.79791 916,799.49404 c 0,2.53665 -1.37458,12.5757 -3.05463,22.30902 -8.48054,49.13175 -10.12901,58.96192 -12.44248,74.19694 -1.37807,9.075 -6.3413,40.125 -11.02942,69 -4.68811,28.875 -8.51251,53.7413 -8.49866,55.2585 0.0139,1.5172 -1.08547,9.3922 -2.44294,17.5 -8.77269,52.397 -14.53187,88.4828 -14.53187,91.0536 0,1.6404 -1.81368,13.9413 -4.03039,27.3353 -2.21672,13.3939 -6.26679,37.8526 -9.00017,54.3526 -2.73338,16.5 -4.9697,31.4305 -4.96961,33.179 9e-5,1.7484 -3.15629,21.7734 -7.01418,44.5 -3.85789,22.7265 -7.72818,46.496 -8.60066,52.821 -2.06194,14.948 -8.22362,52.7538 -13.935,85.5 -2.49411,14.3 -4.9378,29.825 -5.43041,34.5 -0.49261,4.675 -1.33427,10.75 -1.87035,13.5 -0.53608,2.75 -1.49148,11.075 -2.12311,18.5 -1.61858,19.0268 -2.68315,25.3875 -5.74534,34.3278 -3.40422,9.939 -5.03878,10.9524 -18.28078,11.3333 -6.92485,0.1993 -11.66855,-0.2695 -17.5,-1.7291 z m 1502,1.2916 c -13.3107,-1.2692 -36.5306,-6.6367 -42.8519,-9.9056 -1.6528,-0.8547 -5.8107,-2.5716 -9.2397,-3.8154 -3.429,-1.2437 -6.8361,-2.7662 -7.5715,-3.3834 -0.7353,-0.6171 -4.2619,-3.2107 -7.8369,-5.7636 -12.6854,-9.0585 -22.9178,-20.2931 -28.9813,-31.8201 -1.6693,-3.1733 -4.4009,-7.7934 -6.0702,-10.2669 -7.923,-11.7397 -23.9689,-50.3375 -27.757,-66.7686 -0.5072,-2.2 -2.2946,-8.95 -3.972,-15 -11.5098,-41.5137 -16.891,-92.1063 -19.6774,-185 -0.3135,-10.45 -0.8224,-25.525 -1.1311,-33.5 -0.3086,-7.975 -0.5565,-42.4 -0.5509,-76.5 0.012,-73.0656 1.4714,-116.05528 5.7201,-168.5 0.8243,-10.175 1.8902,-24.35 2.3688,-31.5 1.4722,-21.99756 8.3812,-61.84057 15.1007,-87.08283 1.6227,-6.09556 2.9503,-12.07647 2.9503,-13.29091 0,-2.65529 2.6956,-11.46497 8.4532,-27.62626 2.3513,-6.6 5.3004,-14.925 6.5536,-18.5 6.29,-17.94402 22.4663,-51.61462 30.286,-63.03944 2.432,-3.55331 5.2919,-8.26056 6.3553,-10.46056 2.5355,-5.24564 14.983,-21.21175 23.2753,-29.85477 10.9799,-11.4443 26.2021,-20.95002 38.5766,-24.08975 14.2165,-3.60708 48.0311,-4.62548 64.8417,-1.95286 16.5824,2.63634 33.6561,9.66952 41.9976,17.30008 10.2588,9.38455 11.5467,33.85605 2.3005,43.71507 -2.5754,2.7461 -4.007,3.40682 -7.9641,3.67545 -7.3618,0.49978 -17.2943,-0.97509 -32.9487,-4.89255 -19.1131,-4.783 -33.422,-5.61991 -43.356,-2.53584 -3.7791,1.17322 -9.121,3.4675 -11.871,5.0984 -2.75,1.6309 -6.575,3.69776 -8.5,4.59301 -6.7518,3.14002 -23.7361,19.26386 -29.1264,27.65079 -1.5175,2.36113 -3.6243,5.41797 -4.6817,6.79297 -3.3695,4.38148 -12.437,21.28551 -14.7513,27.5 -1.2289,3.3 -3.9047,10.275 -5.9461,15.5 -4.3296,11.08171 -11.494,34.40259 -11.4956,37.41938 -5e-4,1.14434 -1.1687,6.80562 -2.5959,12.58062 -6.6761,27.01374 -13.193,60.09859 -14.3793,73 -0.4805,5.225 -1.5576,14 -2.3935,19.5 -10.9526,72.05971 -14.0134,174.3182 -8.6653,289.5 2.1676,46.6842 4.1631,78.8675 6.0765,98 5.1014,51.0111 8.1762,68.9305 16.1295,94 2.1812,6.875 4.753,15.2 5.7153,18.5 0.9622,3.3 4.7985,11.85 8.5251,19 3.7265,7.15 8.3408,16.0138 10.254,19.6974 3.9386,7.5833 14.4002,18.7751 20.4219,21.8471 10.9919,5.6076 35.6934,6.3611 61.9128,1.8885 12.251,-2.0899 25.7578,-12.2073 34.3916,-25.7617 7.0529,-11.0724 18.1421,-41.2271 20.4728,-55.6713 0.6212,-3.85 2.2523,-13.975 3.6247,-22.5 8.0401,-49.9433 10.6059,-89.7818 10.9167,-169.5 l 0.1598,-41 2.4817,-5.5 c 2.9395,-6.5146 5.1213,-10 6.26,-10 0.4544,0 2.2586,-1.0629 4.0094,-2.3619 6.0748,-4.5073 7.6366,-4.6381 55.3757,-4.6381 74.8146,0 85.525,2.2506 89.4064,18.787 1.0443,4.4493 -0.4715,13.0224 -3.2804,18.5522 -2.3809,4.6874 -11.2244,13.8786 -15.3184,15.9207 -1.65,0.823 -6.375,2.3129 -10.5,3.3108 -6.3231,1.5298 -13.0708,1.876 -43,2.2065 l -35.5,0.392 -0.01,46.6654 c -0.01,54.6459 -1.8584,81.9145 -8.0787,119.0935 -1.3276,7.9354 -2.4139,15.6598 -2.4139,17.1652 0,5.4612 -6.3173,30.8272 -12.18,48.9067 -3.2994,10.175 -6.452,19.9878 -7.0056,21.8063 -1.0881,3.5739 -8.4891,18.9534 -15.1616,31.5063 -3.934,7.401 -6.3743,10.7378 -14.7381,20.1519 -1.9719,2.2195 -3.8729,4.8298 -4.2244,5.8005 -0.3515,0.9708 -1.7319,2.1805 -3.0675,2.6883 -1.3357,0.5078 -2.7413,1.4294 -3.1235,2.0479 -2.782,4.5014 -43.1238,25.689 -53.9993,28.3606 -6.4061,1.5737 -14.1076,2.3283 -19,1.8618 z m 847.9357,-0.3569 c -5.5354,-0.387 -14.0854,-1.6539 -19,-2.8155 -11.5503,-2.73 -28.8046,-10.8959 -38.9357,-18.4269 -11.46,-8.5189 -25.991,-23.5302 -34.0003,-35.1243 -3.7995,-5.5 -7.1894,-10.225 -7.5331,-10.5 -0.3437,-0.275 -1.7548,-2.75 -3.1358,-5.5 -1.381,-2.75 -3.7448,-7.429 -5.2531,-10.3978 -3.746,-7.3737 -10.9953,-24.5119 -12.9445,-30.6022 -0.8802,-2.75 -3.3684,-10.4 -5.5294,-17 -8.1693,-24.9504 -10.2677,-32.8881 -16.1255,-61 -5.8318,-27.9869 -12.7251,-72.9923 -15.0311,-98.1351 -0.5112,-5.5743 -1.8496,-16.3743 -2.9742,-24 -3.0064,-20.3874 -10.5729,-81.4102 -12.3826,-99.8649 -14.4476,-147.32928 -18.6678,-209.90322 -22.155,-328.5 -0.283,-9.625 -0.7118,-19.75 -0.9529,-22.5 -0.241,-2.75 -0.7392,-30.875 -1.107,-62.5 -0.6868,-59.05793 -0.3165,-67.70485 3.1892,-74.46199 0.7894,-1.52165 1.4353,-3.38889 1.4353,-4.14944 0,-2.31945 7.2563,-9.59016 11.5,-11.52291 9.4107,-4.28597 18.1079,-1.30168 25.2005,8.64713 7.0081,9.83024 7.4435,12.33991 7.1104,40.98721 -0.4923,42.35113 0.06,107.39834 1.2016,141.5 1.534,45.82614 2.8567,70.39161 9.0191,167.5 0.9628,15.1718 5.2214,61.5799 8.4391,91.9646 0.8133,7.6805 2.8575,27.2555 4.5426,43.5 4.657,44.8924 8.4629,77.3673 14.4781,123.5354 8.2572,63.377 12.768,90.0093 20.0609,118.441 1.8962,7.3925 3.4477,14.2805 3.4477,15.3066 0,2.2952 7.2293,24.1704 9.9921,30.235 1.109,2.4344 3.5987,8.3511 5.5326,13.1483 3.9649,9.835 6.6772,14.939 14.8099,27.8691 7.2024,11.4512 8.8489,13.6296 16.0518,21.2368 11.1178,11.742 33.2693,20.2687 48.4699,18.6574 7.5316,-0.7983 17.8129,-3.8717 22.2259,-6.6439 1.9702,-1.2377 5.1202,-3.1478 7,-4.2447 5.2082,-3.0392 22.5866,-21.1268 27.8682,-29.0056 9.4453,-14.0898 19.4634,-36.1285 23.4103,-51.5 0.9179,-3.575 2.9647,-11.1715 4.5483,-16.8811 9.0051,-32.4671 26.591,-143.9707 29.1173,-184.6189 0.5128,-8.25 1.6024,-21.975 2.4214,-30.5 4.4301,-46.1108 8.3452,-118.8953 10.005,-186 1.266,-51.18662 1.561,-66.97034 2.0463,-109.5 0.6733,-59.00073 1.833,-124.18148 3.3632,-189.02417 l 0.6378,-27.02416 3.2107,-6.5187 c 2.824,-5.73362 3.9654,-6.96517 9.4772,-10.22583 5.6935,-3.36813 6.9362,-3.70714 13.589,-3.70714 12.3311,0 17.9186,4.74993 20.7947,17.67726 1.8526,8.32716 1.7823,19.14191 -0.4996,76.82274 -1.2371,31.27186 -2.5824,90.44806 -3.5692,157 -0.8422,56.80171 -2.075,112.40697 -3.0263,136.5 -1.366,34.5962 -2.6472,61.9843 -3.532,75.5 -0.54,8.25 -1.4052,24.675 -1.9225,36.5 -1.0403,23.7786 -4.1304,56.0104 -10.0252,104.5671 -2.1411,17.6369 -4.8151,39.6869 -5.9422,49 -4.0121,33.1501 -5.1942,41.1458 -8.618,58.2928 -1.9065,9.5479 -4.9874,23.4979 -6.8466,31 -1.8591,7.5021 -3.6818,15.3754 -4.0503,17.4963 -1.8797,10.8163 -20.0503,58.5917 -26.1076,68.6438 -1.16,1.925 -4.4712,8.0222 -7.3583,13.5493 -2.887,5.5271 -7.9258,13.6271 -11.1974,18 -3.2716,4.3729 -6.8056,9.5257 -7.8533,11.4507 -1.0478,1.925 -5.8691,7.6465 -10.7141,12.7145 -7.3979,7.7385 -10.3344,10.0113 -18.3312,14.1884 -11.0738,5.7843 -24.2549,9.8748 -34.357,10.6621 -3.9164,0.3052 -8.4708,0.6562 -10.1208,0.7801 -1.65,0.1238 -7.529,-0.091 -13.0643,-0.4784 z m 383.2907,-0.3592 c -8.553,-1.3961 -21.3418,-4.7172 -40.8372,-10.605 -5.286,-1.5964 -10.1697,-2.9025 -10.8527,-2.9025 -0.683,0 -4.9081,-1.7488 -9.3891,-3.8863 -9.7052,-4.6294 -21.8377,-14.1572 -26.1375,-20.5261 -1.7027,-2.5221 -4.689,-6.2735 -6.6362,-8.3366 -4.2167,-4.4676 -10.8737,-13.6056 -10.8737,-14.9262 0,-0.5149 -1.1337,-2.4729 -2.5194,-4.3511 -3.996,-5.4162 -13.2505,-22.2004 -14.0514,-25.4839 -0.4011,-1.6444 -1.947,-5.6898 -3.4354,-8.9898 -3.6218,-8.0302 -10.3816,-28.3273 -12.3226,-37 -10.3934,-46.4407 -13.9165,-93.6569 -11.7893,-158 1.1312,-34.2138 1.7284,-37.9925 7.8533,-49.6846 3.4176,-6.5239 11.854,-15.8154 14.3599,-15.8154 1.8021,0 17.3732,16.0321 19.4023,19.9767 3.9366,7.6529 4.4426,13.2842 4.9889,55.5233 0.9428,72.8926 1.5724,85.1571 5.6186,109.4505 2.1821,13.1009 10.3491,43.3679 13.789,51.1017 6.79,15.2661 19.1491,34.9412 27.2854,43.4375 2.1014,2.1944 3.8207,4.3091 3.8207,4.6995 0,0.8099 12.3709,9.8108 13.484,9.8108 0.4015,0 3.4944,1.3185 6.873,2.9299 3.3787,1.6115 9.968,3.974 14.643,5.25 7.5036,2.0481 10.7272,2.3196 27.5,2.3159 16.378,0 20.4365,-0.331 29.4095,-2.3725 5.7252,-1.3025 13.5496,-3.6631 17.3875,-5.2458 3.8379,-1.5826 7.5901,-2.8775 8.3382,-2.8775 1.7331,0 19.2125,-9.6184 21.8648,-12.0316 1.1,-1.0009 4.0116,-2.958 6.4702,-4.3491 4.2718,-2.4172 16.5109,-13.0099 24.003,-20.7742 7.3443,-7.6111 22.0268,-27.1102 22.0268,-29.2526 0,-0.5143 0.6509,-1.6543 1.4465,-2.5334 2.7846,-3.0769 15.5535,-29.3351 15.5535,-31.9844 0,-1.4711 0.3851,-3.1022 0.8558,-3.6247 2.6233,-2.9119 9.2856,-30.5228 11.0874,-45.95 3.7097,-31.7629 -3.0968,-70.5376 -17.5539,-100 -9.8882,-20.1514 -14.374,-27.5245 -24.8893,-40.9092 -2.2,-2.8004 -5.3405,-6.8914 -6.9789,-9.0912 -8.131,-10.9172 -45.2644,-47.4996 -48.2151,-47.4996 -0.7183,0 -1.306,-0.4203 -1.306,-0.9339 0,-2.6752 -44.3377,-34.0661 -48.1162,-34.0661 -0.9712,0 -2.012,-0.3984 -2.3129,-0.8853 -0.689,-1.1148 -21.9105,-12.8657 -30.5709,-16.928 -3.575,-1.6768 -10.325,-5.3069 -15,-8.0667 -4.675,-2.7598 -11.5193,-6.5825 -15.2095,-8.4947 -3.6902,-1.9123 -11.1683,-6.6602 -16.6179,-10.5511 -5.4497,-3.8908 -10.1725,-7.0742 -10.4951,-7.0742 -0.3226,0 -1.644,-1.0125 -2.9363,-2.25 -1.2924,-1.2375 -5.3548,-4.8595 -9.0277,-8.0489 -3.6729,-3.1894 -9.7235,-9.6469 -13.4458,-14.35 -3.7222,-4.7031 -7.7797,-9.7436 -9.0165,-11.2011 -1.2368,-1.4575 -2.2502,-3.1 -2.252,-3.65 0,-0.55 -2.0753,-4.15 -4.6079,-8 -6.0883,-9.25525 -8.6966,-14.52066 -14.0724,-28.40801 -13.1102,-33.86727 -17.4101,-58.0989 -17.4031,-98.07164 0.01,-39.08607 3.6165,-63.12184 14.4395,-96.15163 2.4093,-7.3528 4.6766,-14.6182 5.0384,-16.14535 0.8019,-3.38511 4.0172,-10.70893 11.0733,-25.22337 2.9412,-6.05 5.9098,-12.50083 6.5969,-14.33517 0.6871,-1.83434 1.7441,-3.85934 2.3489,-4.5 0.6047,-0.64066 3.3238,-4.87733 6.0423,-9.41483 2.7186,-4.5375 5.2487,-8.25 5.6225,-8.25 0.3739,0 1.2716,-1.4625 1.995,-3.25 1.2856,-3.17656 8.1956,-13.26316 10.4474,-15.25 1.9514,-1.72186 7.48,-9.2446 7.48,-10.17806 0,-0.48965 2.4944,-3.34989 5.5431,-6.3561 3.0488,-3.00621 7.4363,-7.86808 9.75,-10.80414 8.2014,-10.40718 25.4385,-19.64269 41.4285,-22.1971 14.9806,-2.39316 69.4888,-0.46446 85.5418,3.02679 8.5521,1.85992 26.7528,7.91882 32.3133,10.75687 1.0578,0.5399 4.6233,2.21737 7.9233,3.72772 9.1084,4.16876 25.816,15.66985 37.1883,25.59941 8.8361,7.7152 10.6782,9.88721 13.8803,16.3663 6.7994,13.75765 5.4953,26.56317 -3.8036,37.34741 -5.2587,6.09873 -10.6543,7.84311 -18.765,6.06668 -6.5822,-1.44165 -9.5794,-3.31266 -17.5,-10.92457 -8.8597,-8.51432 -22.3023,-18.81818 -28,-21.46215 -24.4245,-11.334 -38.1228,-14.53393 -65,-15.18409 -15.6221,-0.37789 -21.4143,-0.10139 -32.5799,1.55525 l -13.5799,2.01485 -9.6701,9.65442 c -5.3185,5.30993 -9.6701,10.20835 -9.6701,10.88538 0,0.67702 -1.3861,2.55264 -3.0802,4.16804 -7.1806,6.84715 -29.1936,41.55064 -31.9871,50.42788 -0.4343,1.38007 -2.6718,6.78421 -4.9722,12.00921 -5.8627,13.31596 -10.7635,27.74629 -12.4965,36.79536 -0.8116,4.23755 -2.3474,12.20464 -3.413,17.70464 -3.4551,17.8336 -4.5767,36.58383 -3.2163,53.76934 0.6631,8.37686 2.1251,19.50566 3.2487,24.73066 1.1237,5.225 2.7177,12.6435 3.5423,16.48556 1.9739,9.19717 5.1221,17.17443 13.1733,33.37975 5.4252,10.91981 7.9493,14.76226 13.7948,21 3.9351,4.19908 8.3762,9.09719 9.8693,10.88469 1.4931,1.7875 3.1615,3.25 3.7075,3.25 0.9599,0 9.2952,6.25531 11.3294,8.5023 1.8704,2.06606 10.0312,7.27497 13.9875,8.928 2.1683,0.906 4.1832,2.0272 4.4775,2.4915 0.7316,1.1542 14.5973,9.0733 25.535,14.5836 8.7125,4.3893 23.8819,13.2715 26.0747,15.2676 0.5911,0.5381 3.0661,1.8665 5.5,2.9521 2.4339,1.0856 8.2503,4.6083 12.9253,7.8283 4.675,3.2199 10.1406,6.7751 12.1459,7.9005 5.077,2.8493 19.8603,13.3858 22.7405,16.2079 1.3125,1.286 2.8091,2.3382 3.3259,2.3382 1.1568,0 11.8349,8.147 13.8319,10.5533 0.7994,0.9632 3.929,3.5704 6.9546,5.7939 10.8775,7.9936 44.9999,42.863 45.002,45.9871 4e-4,0.6411 1.6198,2.9657 3.5985,5.1657 3.6982,4.1116 15.8754,22.1154 20.9675,31 1.5761,2.75 3.3309,5.487 3.8994,6.0823 1.2023,1.2588 4.6819,8.8358 10.5244,22.9177 2.282,5.5 4.5743,10.9 5.0941,12 2.1725,4.5973 8.0474,24.4463 8.8794,30 0.4944,3.3 1.8187,11.2677 2.9429,17.706 4.1846,23.9656 4.9758,52.3723 2.0693,74.294 -4.28,32.2813 -9.5589,52.1037 -19.9008,74.728 -1.6915,3.7005 -3.0755,7.1958 -3.0755,7.7674 0,1.3211 -9.6213,18.5259 -12.5851,22.5046 -1.2291,1.65 -3.3188,5.0515 -4.6439,7.5588 -1.3251,2.5073 -5.8657,8.6555 -10.0901,13.6626 -4.2245,5.007 -7.6809,9.2981 -7.6809,9.5357 0,0.9663 -20.954,21.1274 -27.0255,26.0029 -3.589,2.882 -7.5367,6.183 -8.7728,7.3356 -1.236,1.1526 -4.7472,3.4026 -7.8026,5 -3.0553,1.5974 -6.3231,3.6191 -7.2616,4.4925 -2.3845,2.2193 -21.863,12.9119 -23.5213,12.9119 -1.2884,0 -9.3305,3.1273 -12.6503,4.9192 -2.8939,1.5621 -18.4684,5.9501 -26.9659,7.5975 -11.8435,2.296 -32.3949,2.7666 -43.2736,0.9908 z M 1532,1537.3392 c -13.7742,-2.5447 -34.2109,-11.4995 -44.5036,-19.5003 -13.3852,-10.4047 -30.4964,-31.9745 -30.4964,-38.4427 0,-0.9368 -1.0804,-3.9966 -2.4008,-6.7997 -2.6683,-5.6643 -11.7694,-29.1389 -13.4131,-34.5965 -0.5798,-1.925 -1.7009,-5.975 -2.4913,-9 -0.7905,-3.025 -3.4647,-12.475 -5.9427,-21 -6.5602,-22.5691 -9.0046,-33.8694 -20.3335,-94 -2.5562,-13.5677 -6.4714,-45.2348 -7.4181,-60 -0.5114,-7.975 -1.3849,-18.775 -1.9411,-24 -1.4467,-13.5903 -3.8372,-48.5012 -5.2726,-77 -1.8518,-36.7662 -1.5331,-151.9303 0.5646,-204 3.8522,-95.62384 7.8675,-136.72202 17.5878,-180.02027 1.6644,-7.41385 3.7416,-16.85473 4.6159,-20.97973 2.763,-13.03501 5.6434,-23.01405 11.5459,-40 3.1535,-9.075 6.2783,-18.075 6.9441,-20 4.1242,-11.92485 6.5561,-17.53174 11.2168,-25.86128 2.881,-5.14871 5.8727,-10.54871 6.6483,-12 2.3064,-4.31574 15.1164,-16.5555 21.944,-20.96719 11.5108,-7.43781 15.794,-8.62159 31.1458,-8.60814 11.7281,0.0103 14.8125,0.38015 23.5,2.81805 5.5,1.54342 10.45,3.138 11,3.54351 0.55,0.40551 4.4896,1.98472 8.7548,3.50936 4.2651,1.52464 8.0041,3.17563 8.309,3.66888 0.3048,0.49325 1.4405,0.89681 2.5237,0.89681 1.8928,0 12.9654,5.14512 15.2879,7.10385 0.6185,0.52168 5.0957,3.68275 9.9492,7.02461 6.5148,4.48565 10.8992,8.581 16.75,15.64562 4.359,5.26323 7.9254,10.30811 7.9254,11.21085 0,0.90274 1.7333,4.53793 3.8517,8.07821 5.5201,9.22505 14.1483,26.10604 14.1483,27.68093 0,0.73663 1.3447,4.21549 2.9882,7.73079 1.6436,3.5153 3.9171,8.74778 5.0522,11.62773 1.1352,2.87995 2.8908,7.07253 3.9014,9.31684 1.0106,2.24431 2.6214,6.78057 3.5795,10.08057 0.9581,3.3 3.4433,11.4 5.5227,18 7.1639,22.73824 12.956,44.68824 12.956,49.0984 0,1.26526 1.3161,8.96072 2.9246,17.10103 10.0289,50.75236 13.8321,101.01756 13.7556,181.80057 -0.1022,107.8779 -3.8995,176.0651 -14.2009,255 -1.3637,10.45 -2.9529,22.825 -3.5314,27.5 -1.7915,14.4771 -10.4391,56.9325 -14.5498,71.4315 -0.7689,2.7123 -1.4081,6.3123 -1.4203,8 -0.02,2.7303 -4.1957,17.8537 -13.963,50.5685 -7.4621,24.9939 -11.3899,36.0155 -17.0367,47.8063 -2.188,4.5685 -3.9781,8.698 -3.9781,9.1766 0,1.2574 -9.3732,15.2241 -13.225,19.7062 -6.335,7.3716 -17.8332,18.3109 -19.2465,18.3109 -0.786,0 -1.7926,0.6495 -2.2369,1.4433 -0.4442,0.7939 -4.8541,3.8266 -9.7996,6.7395 l -8.992,5.2961 -13,0.1611 c -7.15,0.089 -14.125,-0.047 -15.5,-0.3008 z m 18.5719,-63.8409 c 3.8896,-1.5353 7.9606,-3.513 9.0467,-4.3949 4.0394,-3.2797 15.9454,-18.7915 17.746,-23.1205 1.0256,-2.4656 2.8858,-6.7329 4.1338,-9.4829 2.875,-6.3349 13.0878,-38.2161 14.5754,-45.5 0.6178,-3.025 2.6443,-12.025 4.5033,-20 6.8217,-29.265 11.9017,-57.4094 14.3494,-79.5 0.5485,-4.95 2.1112,-17.1 3.4727,-27 5.156,-37.4922 9.3406,-79.4146 12.1778,-122 2.3667,-35.5219 2.3839,-165.47664 0.026,-199 -3.9195,-55.73669 -8.06,-88.6959 -14.5723,-116 -1.0495,-4.4 -2.1483,-9.80106 -2.4419,-12.00235 -0.5482,-4.11094 -11.2201,-38.20392 -12.5201,-39.99765 -0.9276,-1.2798 -3.6829,-9.12612 -4.5335,-12.90996 -0.5387,-2.39682 -15.6852,-35.45458 -18.5976,-40.59004 -0.4678,-0.825 -2.7356,-4.875 -5.0396,-9 -2.3039,-4.125 -4.5589,-7.74254 -5.0113,-8.03897 -0.4523,-0.29644 -2.3796,-3.90936 -4.2828,-8.02873 -2.891,-6.25715 -4.3903,-8.17862 -9.1104,-11.67561 -15.5169,-11.49603 -32.0425,-13.98377 -49.9594,-7.52079 -8.5621,3.08852 -11.2679,4.79139 -12.0821,7.60356 -0.9225,3.18613 -6.3797,17.84246 -7.5066,20.16054 -1.7759,3.65275 -9.8345,28.3847 -10.4997,32.22339 -0.3599,2.07714 -2.3717,10.52676 -4.4706,18.77695 -7.1721,28.19176 -11.5513,52.93239 -13.9832,78.99966 -0.6157,6.6 -1.5432,15.99554 -2.0611,20.87898 -7.8734,74.23905 -10.3794,243.73252 -4.8811,330.12102 1.2638,19.8571 4.3013,52.8922 6.4363,70 0.8236,6.6 1.5034,14.025 1.5106,16.5 0.022,7.4591 5.575,40.2724 12.5239,74 5.68,27.5689 8.6918,40.0635 13.9809,58 2.3516,7.975 5.2685,17.875 6.4818,22 2.3167,7.8758 9.8745,26.7266 10.9113,27.215 0.3328,0.1568 2.778,3.5579 5.434,7.5582 4.8991,7.3789 8.1683,9.8068 18.6422,13.8453 5.5868,2.1541 17.2111,1.1914 25.6007,-2.1202 z"
       id="path1" />
  </g>
</svg>
